<svg xmlns="http://www.w3.org/2000/svg" fill="none" viewBox="0 0 300 300" id="Flash-1--Streamline-Core" height="300" width="300">
  <g id="flash-1--flash-power-connect-charge-electricity-lightning">
    <path id="Union" fill="#000000" fill-rule="evenodd" d="M85.89835714285714 0c-4.168928571428571 0 -7.959642857142857 2.418385714285714 -9.716357142857142 6.199221428571429L23.307857142857138 119.985l-0.0006428571428571428 -0.00042857142857142855 -0.05142857142857142 0.1142142857142857c-1.505142857142857 3.3407142857142857 -2.1068571428571428 7.021285714285714 -1.706357142857143 10.694142857142856 0.4000714285714285 3.669642857142857 1.7764285714285712 7.116642857142857 3.9175714285714287 10.045285714285713 2.136 2.9215714285714283 4.953214285714285 5.223428571428571 8.133857142857142 6.784928571428572 3.1782857142857144 1.5604285714285713 6.6722142857142845 2.360785714285714 10.184571428571427 2.376642857142857V150h45.6705l-42.63835714285714 136.08214285714286c-1.4239285714285712 4.545 0.32249999999999995 9.482142857142856 4.2865714285714285 12.122142857142856 3.9640714285714282 2.6399999999999997 9.194142857142856 2.344285714285714 12.83742857142857 -0.7221428571428571l207.21771428571427 -174.42814285714283 0.002142857142857143 0.0019285714285714286 0.17142857142857143 -0.15c3.261428571428571 -2.865428571428571 5.648571428571429 -6.673499999999999 6.679285714285713 -11.010642857142857 1.0371428571428571 -4.349571428571428 0.6214285714285714 -8.876142857142856 -1.1485714285714286 -12.954642857142856 -1.7592857142857143 -4.061785714285714 -4.731428571428571 -7.392214285714285 -8.374285714285714 -9.684857142857142 -3.636428571428571 -2.288142857142857 -7.840714285714285 -3.4868571428571427 -12.083571428571426 -3.5406428571428568l0 -0.0008571428571428571H213.0267857142857L251.32714285714283 15.865607142857142c1.8192857142857142 -3.3194357142857136 1.7528571428571427 -7.352957142857142 -0.1757142857142857 -10.610399999999998C249.22285714285712 1.99776 245.71714285714282 0 241.93285714285713 0H85.89835714285714Z" clip-rule="evenodd" stroke-width="21.4286"></path>
  </g>
</svg>
