<svg viewBox="0 0 16 16" fill="none" xmlns="http://www.w3.org/2000/svg" id="Water--Streamline-Unicons" height="16" width="16">
  <path d="M0.7540666666666667 4.583333333333333c0.15286666666666665 0.044866666666666666 0.29979999999999996 0.10786666666666667 0.4377333333333333 0.1876 0.48446666666666666 0.2892 1.0381333333333331 0.44186666666666663 1.6023999999999998 0.44186666666666663 0.5642 0 1.1178666666666666 -0.15266666666666667 1.6023999999999998 -0.44186666666666663 0.30519999999999997 -0.1726 0.6498666666666666 -0.2633333333333333 1.0004666666666666 -0.2633333333333333 0.3506666666666667 0 0.6953333333333332 0.09073333333333333 1.0005333333333333 0.2633333333333333 0.49033333333333334 0.2804 1.0453999999999999 0.4278666666666667 1.6101999999999999 0.4278666666666667 0.5648 0 1.1198666666666666 -0.14746666666666666 1.6101999999999999 -0.4278666666666667 0.30526666666666663 -0.1726 0.6498666666666666 -0.2633333333333333 1.0005333333333333 -0.2633333333333333s0.6953333333333332 0.09073333333333333 1.0005333333333333 0.2633333333333333c0.49539999999999995 0.28313333333333335 1.0552666666666666 0.4338666666666667 1.6258 0.4377333333333333 0.5512666666666666 -0.0011333333333333332 1.0916666666666666 -0.15246666666666664 1.5633333333333335 -0.4377333333333333 0.13793333333333332 -0.07973333333333332 0.2849333333333333 -0.14273333333333332 0.4377333333333333 -0.1876 0.19899999999999998 -0.05806666666666666 0.3668 -0.19273333333333334 0.46646666666666664 -0.3745333333333333 0.09973333333333334 -0.1818 0.12313333333333333 -0.39566666666666667 0.06506666666666666 -0.5947333333333333 -0.057999999999999996 -0.19899999999999998 -0.1928 -0.3668 -0.3745333333333333 -0.46646666666666664 -0.1818 -0.09966666666666665 -0.3957333333333333 -0.12306666666666666 -0.5947333333333333 -0.06506666666666666 -0.2740666666666667 0.08460000000000001 -0.5366 0.20273333333333332 -0.7816666666666667 0.35179999999999995 -0.24893333333333334 0.1456 -0.5322 0.22233333333333333 -0.8207333333333333 0.22233333333333333 -0.2884 0 -0.5716666666666667 -0.07673333333333332 -0.8207333333333333 -0.22233333333333333 -0.5419333333333333 -0.304 -1.1529333333333334 -0.46366666666666667 -1.7743333333333333 -0.46366666666666667 -0.6214666666666666 0 -1.2324 0.15966666666666665 -1.7744 0.46366666666666667 -0.2516 0.1462 -0.5374666666666666 0.22319999999999998 -0.8285333333333332 0.22319999999999998 -0.291 0 -0.5768666666666666 -0.077 -0.8285333333333332 -0.22319999999999998 -0.5419333333333333 -0.304 -1.1529333333333334 -0.46366666666666667 -1.7743333333333333 -0.46366666666666667 -0.6214 0 -1.2324 0.15966666666666665 -1.7744 0.46366666666666667 -0.249 0.1456 -0.5322666666666667 0.22233333333333333 -0.8207333333333333 0.22233333333333333 -0.28846666666666665 0 -0.5717333333333333 -0.07673333333333332 -0.8207333333333333 -0.22233333333333333 -0.24506666666666665 -0.14906666666666665 -0.5075999999999999 -0.2672 -0.7816666666666667 -0.35179999999999995 -0.19899999999999998 -0.057999999999999996 -0.41293333333333326 -0.0346 -0.5946666666666667 0.06506666666666666 -0.1818 0.09966666666666665 -0.31653333333333333 0.26746666666666663 -0.3745333333333333 0.46646666666666664 -0.05806666666666666 0.19906666666666664 -0.034666666666666665 0.41293333333333326 0.065 0.5947333333333333 0.09966666666666665 0.1818 0.26746666666666663 0.3164666666666667 0.46646666666666664 0.3745333333333333h-0.0156Zm14.069733333333334 6.315799999999999c-0.27399999999999997 0.08453333333333332 -0.5366 0.20266666666666666 -0.7816000000000001 0.3517333333333333 -0.249 0.1456 -0.5322666666666667 0.2224 -0.8208 0.2224 -0.2884 0 -0.5716666666666667 -0.0768 -0.8207333333333333 -0.2224 -0.5418666666666666 -0.304 -1.1529333333333334 -0.46366666666666667 -1.7743333333333333 -0.46366666666666667 -0.6214 0 -1.2323333333333333 0.15966666666666665 -1.7743333333333333 0.46366666666666667 -0.2516 0.14626666666666666 -0.5374666666666666 0.22319999999999998 -0.8285999999999999 0.22319999999999998 -0.291 0 -0.5768 -0.07693333333333333 -0.8285333333333332 -0.22319999999999998 -0.5419333333333333 -0.304 -1.1529333333333334 -0.46366666666666667 -1.7743333333333333 -0.46366666666666667 -0.6214 0 -1.2324 0.15966666666666665 -1.7743333333333333 0.46366666666666667 -0.249 0.1456 -0.5322666666666667 0.2224 -0.8207333333333333 0.2224 -0.28846666666666665 0 -0.5717333333333333 -0.0768 -0.8207333333333333 -0.2224 -0.24506666666666665 -0.14906666666666665 -0.5075999999999999 -0.2672 -0.7816666666666667 -0.3517333333333333 -0.09853333333333332 -0.0288 -0.2018 -0.0378 -0.3038666666666666 -0.026666666666666665 -0.102 0.011199999999999998 -0.20086666666666667 0.04226666666666666 -0.29086666666666666 0.09166666666666667 -0.09 0.049333333333333326 -0.1694 0.11593333333333333 -0.23366666666666663 0.19599999999999998 -0.06426666666666667 0.07999999999999999 -0.11213333333333332 0.17193333333333333 -0.14086666666666664 0.2705333333333333 -0.028733333333333333 0.09853333333333332 -0.0378 0.20173333333333332 -0.026666666666666665 0.30379999999999996 0.011199999999999998 0.102 0.042333333333333334 0.20086666666666667 0.09166666666666667 0.29086666666666666 0.0494 0.09 0.11599999999999999 0.16946666666666665 0.19599999999999998 0.23366666666666663 0.08006666666666666 0.06426666666666667 0.172 0.11213333333333332 0.2705333333333333 0.14086666666666664 0.15286666666666665 0.044866666666666666 0.29979999999999996 0.10786666666666667 0.4377333333333333 0.1876 0.48446666666666666 0.2891333333333333 1.0381333333333331 0.44186666666666663 1.6023999999999998 0.44186666666666663 0.5642 0 1.1178666666666666 -0.15273333333333333 1.6023999999999998 -0.44186666666666663 0.30519999999999997 -0.1726 0.6498666666666666 -0.2633333333333333 1.0004666666666666 -0.2633333333333333 0.3506666666666667 0 0.6953333333333332 0.09073333333333333 1.0005333333333333 0.2633333333333333 0.49033333333333334 0.2804 1.0453999999999999 0.4278666666666667 1.6101999999999999 0.4278666666666667 0.5648 0 1.1198666666666666 -0.14746666666666666 1.6101999999999999 -0.4278666666666667 0.30526666666666663 -0.1726 0.6498666666666666 -0.2633333333333333 1.0005333333333333 -0.2633333333333333s0.6953333333333332 0.09073333333333333 1.0005333333333333 0.2633333333333333c0.49539999999999995 0.28313333333333335 1.0552666666666666 0.4338666666666667 1.6258 0.4377333333333333 0.5512666666666666 -0.0011333333333333332 1.0916666666666666 -0.15246666666666664 1.5633333333333335 -0.4377333333333333 0.13793333333333332 -0.07973333333333332 0.2849333333333333 -0.14273333333333332 0.4377333333333333 -0.1876 0.19899999999999998 -0.05806666666666666 0.3668 -0.19273333333333334 0.46646666666666664 -0.3745333333333333 0.09973333333333334 -0.18173333333333333 0.12313333333333333 -0.39566666666666667 0.06506666666666666 -0.5946666666666667 -0.057999999999999996 -0.19906666666666664 -0.1928 -0.3668666666666667 -0.3745333333333333 -0.4665333333333333 -0.1818 -0.09966666666666665 -0.3957333333333333 -0.12313333333333333 -0.5947333333333333 -0.065h-0.015666666666666666Zm0 -3.9082666666666666c-0.27399999999999997 0.08453333333333332 -0.5366 0.20266666666666666 -0.7816000000000001 0.3517333333333333 -0.249 0.1456 -0.5322666666666667 0.22233333333333333 -0.8208 0.22233333333333333 -0.2884 0 -0.5716666666666667 -0.07673333333333332 -0.8207333333333333 -0.22233333333333333 -0.5418666666666666 -0.304 -1.1529333333333334 -0.46366666666666667 -1.7743333333333333 -0.46366666666666667 -0.6214 0 -1.2323333333333333 0.15966666666666665 -1.7743333333333333 0.46366666666666667 -0.2516 0.1462 -0.5374666666666666 0.22319999999999998 -0.8285999999999999 0.22319999999999998 -0.291 0 -0.5768 -0.077 -0.8285333333333332 -0.22319999999999998 -0.5419333333333333 -0.304 -1.1529333333333334 -0.46366666666666667 -1.7743333333333333 -0.46366666666666667 -0.6214 0 -1.2324 0.15966666666666665 -1.7743333333333333 0.46366666666666667 -0.249 0.1456 -0.5322666666666667 0.22233333333333333 -0.8207333333333333 0.22233333333333333 -0.28846666666666665 0 -0.5717333333333333 -0.07673333333333332 -0.8207333333333333 -0.22233333333333333 -0.24506666666666665 -0.14906666666666665 -0.5075999999999999 -0.2672 -0.7816666666666667 -0.3517333333333333 -0.10233333333333333 -0.03866666666666667 -0.21166666666666667 -0.05539999999999999 -0.3209333333333333 -0.049133333333333334 -0.10919999999999999 0.006266666666666667 -0.21586666666666665 0.0354 -0.3131333333333333 0.08553333333333332 -0.09726666666666667 0.050133333333333335 -0.1829333333333333 0.12006666666666667 -0.25139999999999996 0.2053333333333333 -0.06853333333333333 0.08526666666666667 -0.1184 0.184 -0.14633333333333332 0.2897333333333333 -0.028733333333333333 0.0986 -0.0378 0.2018 -0.026666666666666665 0.3038666666666666 0.011199999999999998 0.102 0.042333333333333334 0.20086666666666667 0.09166666666666667 0.29086666666666666 0.0494 0.09 0.11599999999999999 0.16946666666666665 0.19599999999999998 0.23366666666666663 0.08006666666666666 0.06426666666666667 0.172 0.11213333333333332 0.2705333333333333 0.14086666666666664 0.15286666666666665 0.044866666666666666 0.29979999999999996 0.10786666666666667 0.4377333333333333 0.1876 0.48446666666666666 0.2891333333333333 1.0381333333333331 0.44186666666666663 1.6023999999999998 0.44186666666666663 0.5642 0 1.1178666666666666 -0.15273333333333333 1.6023999999999998 -0.44186666666666663 0.30519999999999997 -0.1726 0.6498666666666666 -0.2633333333333333 1.0004666666666666 -0.2633333333333333 0.3506666666666667 0 0.6953333333333332 0.09073333333333333 1.0005333333333333 0.2633333333333333 0.49033333333333334 0.2804 1.0453999999999999 0.4278666666666667 1.6101999999999999 0.4278666666666667 0.5648 0 1.1198666666666666 -0.14746666666666666 1.6101999999999999 -0.4278666666666667 0.30526666666666663 -0.1726 0.6498666666666666 -0.2633333333333333 1.0005333333333333 -0.2633333333333333s0.6953333333333332 0.09073333333333333 1.0005333333333333 0.2633333333333333c0.49539999999999995 0.28313333333333335 1.0552666666666666 0.43393333333333334 1.6258 0.4377333333333333 0.5512666666666666 -0.0012 1.0916666666666666 -0.15246666666666664 1.5633333333333335 -0.4377333333333333 0.13793333333333332 -0.07973333333333332 0.2849333333333333 -0.14273333333333332 0.4377333333333333 -0.1876 0.19899999999999998 -0.05806666666666666 0.3668 -0.19273333333333334 0.46646666666666664 -0.3745333333333333 0.09973333333333334 -0.18173333333333333 0.12313333333333333 -0.39566666666666667 0.06506666666666666 -0.5947333333333333 -0.057999999999999996 -0.19899999999999998 -0.1928 -0.3668 -0.3745333333333333 -0.46646666666666664 -0.1818 -0.09966666666666665 -0.3957333333333333 -0.12313333333333333 -0.5947333333333333 -0.065h0.04686666666666667Z" fill="#000000" stroke-width="0.6667"></path>
</svg>
