<svg xmlns="http://www.w3.org/2000/svg" fill="none" viewBox="0 0 300 300" id="Focus-Frame--Streamline-Core" height="300" width="300">
  <g id="focus-frame--photos-frame-photo-camera-photography-pictures-focus">
    <path id="Subtract" fill="#000000" fill-rule="evenodd" d="M300 53.57142857142857c0 -8.524714285714285 -3.3857142857142857 -16.70057142857143 -9.413571428571428 -22.72842857142857C284.55857142857144 24.815142857142856 276.38142857142856 21.428571428571427 267.85714285714283 21.428571428571427h-235.7142857142857c-8.524714285714285 0 -16.700464285714286 3.3865714285714286 -22.72842857142857 9.414428571428571C3.3864642857142857 36.87085714285714 0 45.0465 0 53.57142857142857v192.85714285714283c0 8.524285714285714 3.3864642857142857 16.70142857142857 9.414428571428571 22.729285714285712C15.442371428571427 275.18571428571425 23.61792857142857 278.57142857142856 32.14285714285714 278.57142857142856l235.7142857142857 0c8.524285714285714 0 16.70142857142857 -3.3857142857142857 22.729285714285712 -9.413571428571428S300 254.95285714285714 300 246.42857142857142v-192.85714285714283Zm-69.64285714285714 91.07142857142857c8.875714285714285 0 16.07142857142857 7.195499999999999 16.07142857142857 16.07142857142857v48.21428571428571c0 8.875714285714285 -7.195714285714285 16.07142857142857 -16.07142857142857 16.07142857142857H182.14285714285714c-8.875928571428572 0 -16.07142857142857 -7.195714285714285 -16.07142857142857 -16.07142857142857 0 -8.875928571428572 7.195499999999999 -16.07142857142857 16.07142857142857 -16.07142857142857H214.28571428571428V160.7142857142857c0 -8.875928571428572 7.195714285714285 -16.07142857142857 16.07142857142857 -16.07142857142857ZM69.64285714285714 75c-8.875928571428572 0 -16.07142857142857 7.195499999999999 -16.07142857142857 16.07142857142857V139.28571428571428c0 8.875928571428572 7.195499999999999 16.07142857142857 16.07142857142857 16.07142857142857S85.71428571428571 148.16164285714285 85.71428571428571 139.28571428571428V107.14285714285714h32.14285714285714c8.875928571428572 0 16.07142857142857 -7.195499999999999 16.07142857142857 -16.07142857142857s-7.195499999999999 -16.07142857142857 -16.07142857142857 -16.07142857142857H69.64285714285714Z" clip-rule="evenodd" stroke-width="21.4286"></path>
  </g>
</svg>
