<svg xmlns="http://www.w3.org/2000/svg" fill="none" viewBox="0 0 14 14" id="Lightbulb-On--Streamline-Flex" height="14" width="14">
  <g id="lightbulb-on--lighting-light-shine-incandescent-bulb-lights">
    <path id="Union" fill="#000000" fill-rule="evenodd" d="M7.75008 0.75c0 -0.414214 -0.33578 -0.75 -0.75 -0.75 -0.41421 0 -0.75 0.335786 -0.75 0.75v0.52083c0 0.41422 0.33579 0.75 0.75 0.75 0.41422 0 0.75 -0.33578 0.75 -0.75V0.75Zm-4.6391 1.30024c-0.2929 -0.2929 -0.76777 -0.2929 -1.06066 0 -0.2929 0.29289 -0.2929 0.76776 0 1.06066l0.36828 0.36828c0.2929 0.29289 0.76777 0.29289 1.06066 0 0.2929 -0.29289 0.2929 -0.76777 0 -1.06066l-0.36828 -0.36828ZM14.0001 7c0 0.41421 -0.3358 0.75 -0.75 0.75h-0.5209c-0.4142 0 -0.75 -0.33579 -0.75 -0.75s0.3358 -0.75 0.75 -0.75h0.5209c0.4142 0 0.75 0.33579 0.75 0.75Zm-12.72927 0.75c0.41422 0 0.75 -0.33579 0.75 -0.75s-0.33578 -0.75 -0.75 -0.75H0.75C0.335786 6.25 0 6.58579 0 7s0.335786 0.75 0.75 0.75h0.52083ZM11.9498 2.05024c0.2929 0.29289 0.2929 0.76776 0 1.06066l-0.3682 0.36828c-0.2929 0.29289 -0.7678 0.29289 -1.0607 0 -0.2929 -0.29289 -0.2929 -0.76777 0 -1.06066l0.3683 -0.36828c0.2929 -0.2929 0.7678 -0.2929 1.0606 0ZM9.22632 12.2155c0.01057 0.0007 0.02109 0.0012 0.03157 0.0014 -0.00961 0.1715 -0.02334 0.3385 -0.03792 0.4993l-0.00023 0.0024c-0.02757 0.2887 -0.13779 0.5691 -0.32623 0.7923 -0.18953 0.2245 -0.45199 0.3821 -0.7518 0.423l-0.00298 0.0004c-0.27704 0.0361 -0.8072 0.0657 -1.08816 0.0657s-0.81111 -0.0296 -1.08816 -0.0657l-0.00298 -0.0004c-0.29981 -0.0409 -0.56227 -0.1985 -0.75179 -0.423 -0.18844 -0.2232 -0.29866 -0.5036 -0.32624 -0.7923l-0.00022 -0.0024c-0.01458 -0.1608 -0.02832 -0.3278 -0.03792 -0.4993 0.01032 -0.0002 0.02069 -0.0007 0.03111 -0.0014 0.04952 -0.0034 0.09729 -0.0124 0.14273 -0.0265 1.31163 -0.2659 2.7543 -0.2529 4.07997 0.0039 0.04137 0.0118 0.0846 0.0195 0.12925 0.0226Zm-1.55097 -1.453c0.57531 0.0308 1.14503 0.1018 1.6956 0.2102 0.13105 -0.3756 0.38202 -0.7325 0.70215 -1.17365l0.0031 -0.00433 0 -0.00002c0.1331 -0.18348 0.2768 -0.38154 0.4136 -0.59134 0.3787 -0.58056 0.6013 -1.38186 0.6316 -2.04632 0.0003 -0.00758 0.0005 -0.01517 0.0005 -0.02276 0 -1.15527 -0.3269 -2.13472 -1.0509 -2.8207 -0.7196 -0.68182 -1.75461 -1.00059 -3.02046 -1.00059s-2.30086 0.31877 -3.02041 1.00059c-0.72396 0.68599 -1.05088 1.66544 -1.05088 2.8207 0 0.00759 0.00017 0.01518 0.00052 0.02276 0.03028 0.66446 0.25292 1.46576 0.63152 2.04632 0.13682 0.20979 0.28052 0.40785 0.41363 0.59132l0.00002 0.00002 0.00315 0.00435c0.31984 0.44085 0.57067 0.79745 0.7018 1.17285 0.55207 -0.1142 1.12168 -0.1841 1.69546 -0.2125v-0.90566c-0.08852 -0.05991 -0.17073 -0.13384 -0.24368 -0.22178 -0.27351 -0.3297 -0.5836 -0.78751 -0.80331 -1.30727 -0.1344 -0.31794 0.01439 -0.68463 0.33232 -0.81903 0.31794 -0.1344 0.68463 0.01439 0.81903 0.33233 0.13876 0.32825 0.33322 0.63551 0.52088 0.87928 0.18765 -0.24377 0.38211 -0.55103 0.52087 -0.87928 0.1344 -0.31794 0.50109 -0.46673 0.81903 -0.33233 0.31794 0.1344 0.46672 0.50109 0.33232 0.81903 -0.21971 0.51976 -0.5298 0.97757 -0.80331 1.30727 -0.07308 0.0881 -0.15545 0.16213 -0.24415 0.2221v0.90844Z" clip-rule="evenodd" stroke-width="1"></path>
  </g>
</svg>
