<svg xmlns="http://www.w3.org/2000/svg" fill="none" viewBox="0 0 300 300" id="Music-Note-2--Streamline-Core" height="300" width="300">
  <g id="music-note-2--music-audio-note-entertainment">
    <path id="Union" fill="#000000" fill-rule="evenodd" d="M256.515 11.628214285714284c3.8678571428571424 -1.056942857142857 7.926428571428571 -1.1995928571428571 11.860714285714284 -0.4151785714285714 3.932142857142857 0.7843285714285714 7.617857142857142 2.4710142857142854 10.774285714285714 4.912992857142857 3.1564285714285707 2.441142857142857 5.7 5.569114285714286 7.448571428571428 9.1299 1.7507142857142854 3.5599285714285713 2.6657142857142855 7.467214285714285 2.6871428571428573 11.42335714285714l0 0.0887142857142857 0 43.77385714285714c0.004285714285714286 0.15535714285714286 0.004285714285714286 0.31049999999999994 0 0.4652142857142857l0 107.80992857142857 -0.002142857142857143 0.29164285714285715 0.002142857142857143 0.4510714285714285c0 27.766714285714283 -22.508571428571425 50.27528571428571 -50.27571428571429 50.27528571428571 -27.765214285714283 0 -50.273999999999994 -22.508571428571425 -50.273999999999994 -50.27528571428571 0 -27.76585714285714 22.508785714285715 -50.27464285714286 50.273999999999994 -50.27464285714286 6.394285714285714 0 12.507857142857143 1.1933571428571428 18.13285714285714 3.3692142857142855V97.84092857142856L111.26399999999998 138.3627857142857v100.64721428571427l-0.00042857142857142855 0.12214285714285714C111.19842857142856 266.84142857142854 88.71471428571428 289.2857142857143 60.98892857142857 289.2857142857143 33.22307142857143 289.2857142857143 10.714285714285714 266.77714285714285 10.714285714285714 239.01c0 -27.765214285714283 22.508785714285715 -50.273999999999994 50.27464285714286 -50.273999999999994 6.393 0 12.507214285714285 1.193142857142857 18.132214285714284 3.3689999999999998V81.25071428571428l0.00021428571428571427 0c0.031285714285714285 -5.657142857142857 1.8897857142857142 -11.174357142857142 5.329071428571428 -15.703285714285714 3.427071428571428 -4.512428571428571 8.245714285714284 -7.805571428571428 13.749642857142858 -9.327214285714286L256.395 11.661514285714285l0.12 -0.03377142857142857 0 0.00047142857142857137Z" clip-rule="evenodd" stroke-width="21.4286"></path>
  </g>
</svg>
