<svg xmlns="http://www.w3.org/2000/svg" fill="none" viewBox="0 0 300 300" id="Volume-Off--Streamline-Core" height="300" width="300">
  <g id="volume-off--speaker-music-mute-volume-control-audio-off-mute-entertainment">
    <path id="Union" fill="#000000" fill-rule="evenodd" d="M4.707214285714286 27.435642857142856c-6.276287142857143 -6.276278571428572 -6.276287142857143 -16.45215 0 -22.72842857142857 6.276278571428572 -6.276285 16.45215 -6.276285 22.72842857142857 0L118.98857142857143 96.26014285714285l71.85192857142856 -68.15828571428571c0.39492857142857135 -0.3745714285714285 0.8179285714285714 -0.7187142857142856 1.2649285714285714 -1.029 21.094714285714282 -14.639871428571427 49.46742857142856 0.8164285714285714 48.965999999999994 26.327571428571428v164.94171428571428l54.22071428571428 54.222857142857144c6.276428571428571 6.276428571428571 6.276428571428571 16.450714285714284 0 22.727142857142855 -6.276428571428571 6.276428571428571 -16.450714285714284 6.276428571428571 -22.727142857142855 0L4.707214285714286 27.435642857142856Zm55.263642857142855 93.00857142857141 156.93771428571426 156.93792857142856c-8.689714285714285 2.417142857142857 -18.3975 1.3414285714285714 -26.731714285714283 -4.442142857142857 -0.4853571428571428 -0.33642857142857135 -0.942 -0.7135714285714286 -1.3654285714285712 -1.1249999999999998L118.86 203.7085714285714H91.07142857142857c-17.61942857142857 0 -32.14285714285714 -14.614285714285714 -32.14285714285714 -32.208V128.51335714285713c0 -2.7794999999999996 0.3623571428571429 -5.484428571428571 1.0422857142857143 -8.069142857142857Z" clip-rule="evenodd" stroke-width="21.4286"></path>
  </g>
</svg>
