<svg xmlns="http://www.w3.org/2000/svg" fill="none" viewBox="0 0 300 300" id="Add-2--Streamline-Core" height="300" width="300">
  <g id="add-2--remove-bold-cross-buttons-button-add-plus-+-mathematics-math">
    <path id="Union" fill="#000000" fill-rule="evenodd" d="M123.21428571428571 10.714285714285714c-11.834571428571428 0 -21.428571428571427 9.593892857142857 -21.428571428571427 21.428571428571427v69.64285714285714H32.14285714285714c-11.83467857142857 0 -21.428571428571427 9.594 -21.428571428571427 21.428571428571427v53.57142857142857c0 11.834571428571428 9.593892857142857 21.428571428571427 21.428571428571427 21.428571428571427h69.64285714285714v69.64285714285714c0 11.834999999999999 9.594 21.428571428571427 21.428571428571427 21.428571428571427h53.57142857142857c11.834571428571428 0 21.428571428571427 -9.593571428571428 21.428571428571427 -21.428571428571427V198.2142857142857h69.64285714285714c11.834999999999999 0 21.428571428571427 -9.594 21.428571428571427 -21.428571428571427v-53.57142857142857c0 -11.834571428571428 -9.593571428571428 -21.428571428571427 -21.428571428571427 -21.428571428571427H198.2142857142857V32.14285714285714c0 -11.83467857142857 -9.594 -21.428571428571427 -21.428571428571427 -21.428571428571427h-53.57142857142857Z" clip-rule="evenodd" stroke-width="21.4286"></path>
  </g>
</svg>
