<svg xmlns="http://www.w3.org/2000/svg" fill="none" viewBox="0 0 300 300" id="Volume-Level-High--Streamline-Core" height="300" width="300">
  <g id="volume-level-high--speaker-high-volume-control-audio-music-entertainment">
    <path id="Union" fill="#000000" fill-rule="evenodd" d="M133.17685714285713 27.072642857142856c21.094714285714282 -14.639999999999999 49.46785714285714 0.8162142857142857 48.965999999999994 26.327571428571428V246.9642857142857l-0.0025714285714285713 0c-0.5627142857142856 25.420714285714283 -30.030214285714283 40.45285714285714 -50.892 25.975714285714282 -0.4853571428571428 -0.33642857142857135 -0.942 -0.7135714285714286 -1.3654285714285712 -1.1249999999999998L59.93142857142857 203.70835714285712H32.14285714285714c-17.619385714285713 0 -32.14285714285714 -14.6145 -32.14285714285714 -32.208V128.51292857142857c0 -17.5935 14.523449999999999 -32.208 32.14285714285714 -32.208h27.86957142857143L131.91192857142858 28.101428571428567c0.39492857142857135 -0.3745714285714285 0.8179285714285714 -0.7184999999999999 1.2649285714285714 -1.0287857142857142Zm144.23957142857142 43.69221428571428c-4.596428571428571 -7.5925714285714285 -14.479285714285712 -10.020857142857142 -22.07142857142857 -5.423785714285714 -7.592142857142857 4.597285714285714 -10.02 14.479071428571428 -5.423571428571428 22.07185714285714 11.440714285714286 18.89592857142857 17.631428571428568 40.50149999999999 17.935714285714283 62.58685714285714 -0.30428571428571427 22.085142857142856 -6.494999999999999 43.69092857142857 -17.935714285714283 62.58685714285714 -4.596428571428571 7.5919285714285705 -2.1685714285714286 17.474785714285716 5.423571428571428 22.071214285714284 7.592142857142857 4.598571428571429 17.474999999999998 2.1685714285714286 22.07142857142857 -5.423571428571428 14.447142857142856 -23.858785714285712 22.244999999999997 -51.149357142857134 22.583571428571428 -79.03907142857142v-0.3908571428571428c-0.3385714285714286 -27.889714285714284 -8.13642857142857 -55.18028571428571 -22.583571428571428 -79.03949999999999Zm-41.78357142857143 38.601c-5.659285714285714 -6.839357142857143 -15.788571428571428 -7.797642857142856 -22.62835714285714 -2.1405 -6.839571428571428 5.657357142857143 -7.797857142857143 15.787928571428571 -2.1407142857142856 22.627499999999998 4.491214285714285 5.430857142857143 6.796928571428571 12.342428571428572 6.460499999999999 19.382571428571428 -0.02357142857142857 0.5091428571428571 -0.02357142857142857 1.0193571428571429 0 1.5287142857142857 0.33642857142857135 7.039928571428571 -1.969285714285714 13.951714285714285 -6.460499999999999 19.382571428571428 -5.657142857142857 6.839357142857143 -4.698857142857142 16.970142857142857 2.1407142857142856 22.627285714285716 6.839785714285713 5.657357142857143 16.96907142857143 4.699071428571428 22.62835714285714 -2.1405 9.430714285714284 -11.402785714285713 14.34642857142857 -25.862142857142857 13.829999999999998 -40.633714285714284 0.5164285714285713 -14.771571428571427 -4.399285714285714 -29.230928571428567 -13.829999999999998 -40.63392857142857Z" clip-rule="evenodd" stroke-width="21.4286"></path>
  </g>
</svg>
