<svg xmlns="http://www.w3.org/2000/svg" fill="none" viewBox="0 0 48 48" id="Double-Tailless-Line-Arrow-Right--Streamline-Plump" height="48" width="48">
  <g id="Solid/Arrows/Tailless Line arrow/double-tailless-line-arrow-right--arrow-arrows-double-right">
    <path id="Union" fill="#000000" fill-rule="evenodd" d="M13.0699 23.3863c0.2561 0.351 0.2564 0.8271 0.0006 1.1783L2.61053 38.9279c-0.72304 0.9928 -1.10147 2.2256 -0.48267 3.2865 0.33082 0.5673 0.83581 1.251 1.60664 2.0206 1.16091 1.1589 2.28508 1.5776 3.10528 1.7104 0.84155 0.1362 1.63099 -0.2789 2.2769 -0.8353C15.4443 39.6595 21.4084 31.5198 24.4331 27.1013c1.2973 -1.8951 1.2947 -4.3552 -0.0063 -6.2478 -3.0691 -4.4648 -9.1545 -12.73662 -15.57611 -18.19933 -0.47354 -0.40283 -1.04737 -0.68832 -1.66728 -0.64129 -0.85279 0.06469 -2.16804 0.40269 -3.44821 1.68097 -0.95663 0.95521 -1.50459 1.82247 -1.81813 2.49034 -0.39097 0.83278 -0.12112 1.75798 0.42131 2.50106L13.0699 23.3863Zm20 0c0.2561 0.351 0.2564 0.8271 0.0007 1.1783L22.6105 38.9279c-0.723 0.9928 -1.1014 2.2256 -0.4826 3.2865 0.3308 0.5673 0.8358 1.251 1.6066 2.0206 1.1609 1.1589 2.2851 1.5776 3.1053 1.7104 0.8415 0.1362 1.631 -0.2789 2.2769 -0.8353 6.3276 -5.4506 12.2917 -13.5903 15.3164 -18.0088 1.2973 -1.8951 1.2947 -4.3552 -0.0063 -6.2478 -3.0691 -4.4648 -9.1545 -12.73662 -15.5761 -18.19933 -0.4736 -0.40283 -1.0474 -0.68832 -1.6673 -0.64129 -0.8528 0.06469 -2.168 0.40269 -3.4482 1.68097 -0.9566 0.95521 -1.5046 1.82247 -1.8181 2.49034 -0.391 0.83278 -0.1212 1.75798 0.4213 2.50106L33.0699 23.3863Z" clip-rule="evenodd" stroke-width="1"></path>
  </g>
</svg>
