<svg xmlns="http://www.w3.org/2000/svg" fill="none" viewBox="0 0 300 300" height="300" width="300">
  <g id="timer-pause--timer-pause-stopwatch-time">
    <path id="Subtract" fill="#000000" fill-rule="evenodd" d="M101.78571428571428 16.07142857142857c0 -8.876014285714286 7.195499999999999 -16.07142857142857 16.07142857142857 -16.07142857142857h64.28571428571428c8.875928571428572 0 16.07142857142857 7.195414285714285 16.07142857142857 16.07142857142857 0 8.875928571428572 -7.195499999999999 16.07142857142857 -16.07142857142857 16.07142857142857h-16.07142857142857v11.709C229.4935714285714 51.7605 278.57142857142856 105.86335714285714 278.57142857142856 171.42857142857142c0 71.00785714285713 -57.56357142857143 128.57142857142856 -128.57142857142856 128.57142857142856 -71.00807142857143 0 -128.57142857142856 -57.56357142857143 -128.57142857142856 -128.57142857142856 0 -65.56521428571428 49.077214285714284 -119.66807142857142 112.49999999999999 -127.57671428571427V32.14285714285714H117.85714285714285c-8.875928571428572 0 -16.07142857142857 -7.195499999999999 -16.07142857142857 -16.07142857142857ZM32.79278571428571 75.64992857142857l21.428571428571427 -21.428571428571427c6.276214285714285 -6.276214285714285 6.276214285714285 -16.452214285714284 0 -22.72842857142857s-16.452214285714284 -6.276214285714285 -22.72842857142857 0l-21.428571428571427 21.428571428571427c-6.276278571428572 6.276214285714285 -6.276278571428572 16.452214285714284 0 22.72842857142857s16.452214285714284 6.276214285714285 22.72842857142857 0Zm212.98649999999998 -44.157c6.276428571428571 -6.276214285714285 16.450714285714284 -6.276214285714285 22.727142857142855 0l21.428571428571427 21.428571428571427c6.276428571428571 6.276214285714285 6.276428571428571 16.452214285714284 0 22.72842857142857s-16.450714285714284 6.276214285714285 -22.727142857142855 0l-21.428571428571427 -21.428571428571427c-6.276428571428571 -6.276214285714285 -6.276428571428571 -16.452214285714284 0 -22.72842857142857ZM117.85714285714285 104.46428571428571c7.3967142857142845 0 13.392857142857142 5.996142857142857 13.392857142857142 13.392857142857142v107.14285714285714c0 7.397142857142857 -5.996142857142857 13.392857142857142 -13.392857142857142 13.392857142857142s-13.392857142857142 -5.9957142857142856 -13.392857142857142 -13.392857142857142v-107.14285714285714c0 -7.3967142857142845 5.996142857142857 -13.392857142857142 13.392857142857142 -13.392857142857142Zm77.67857142857142 13.392857142857142c0 -7.3967142857142845 -5.996142857142857 -13.392857142857142 -13.392857142857142 -13.392857142857142s-13.392857142857142 5.996142857142857 -13.392857142857142 13.392857142857142v107.14285714285714c0 7.397142857142857 5.996142857142857 13.392857142857142 13.392857142857142 13.392857142857142s13.392857142857142 -5.9957142857142856 13.392857142857142 -13.392857142857142v-107.14285714285714Z" clip-rule="evenodd" stroke-width="21.4286"></path>
  </g>
</svg>
